<svg width="14" height="10" viewBox="0 0 14 10" fill="none" xmlns="http://www.w3.org/2000/svg">
<path fill-rule="evenodd" clip-rule="evenodd" d="M2.5 0.833333C2.5 0.61232 2.5878 0.400358 2.74408 0.244078C2.90036 0.0877975 3.11232 0 3.33333 0H12.5C12.721 0 12.933 0.0877975 13.0893 0.244078C13.2455 0.400358 13.3333 0.61232 13.3333 0.833333C13.3333 1.05435 13.2455 1.26631 13.0893 1.42259C12.933 1.57887 12.721 1.66667 12.5 1.66667H3.33333C3.11232 1.66667 2.90036 1.57887 2.74408 1.42259C2.5878 1.26631 2.5 1.05435 2.5 0.833333ZM2.5 5C2.5 4.77899 2.5878 4.56702 2.74408 4.41074C2.90036 4.25446 3.11232 4.16667 3.33333 4.16667H12.5C12.721 4.16667 12.933 4.25446 13.0893 4.41074C13.2455 4.56702 13.3333 4.77899 13.3333 5C13.3333 5.22101 13.2455 5.43297 13.0893 5.58926C12.933 5.74554 12.721 5.83333 12.5 5.83333H3.33333C3.11232 5.83333 2.90036 5.74554 2.74408 5.58926C2.5878 5.43297 2.5 5.22101 2.5 5ZM2.5 9.16667C2.5 8.94565 2.5878 8.73369 2.74408 8.57741C2.90036 8.42113 3.11232 8.33333 3.33333 8.33333H12.5C12.721 8.33333 12.933 8.42113 13.0893 8.57741C13.2455 8.73369 13.3333 8.94565 13.3333 9.16667C13.3333 9.38768 13.2455 9.59964 13.0893 9.75592C12.933 9.9122 12.721 10 12.5 10H3.33333C3.11232 10 2.90036 9.9122 2.74408 9.75592C2.5878 9.59964 2.5 9.38768 2.5 9.16667Z" fill="#344054"/>
<path d="M1.66667 0.833333C1.66667 1.05435 1.57887 1.26631 1.42259 1.42259C1.26631 1.57887 1.05435 1.66667 0.833333 1.66667C0.61232 1.66667 0.400358 1.57887 0.244078 1.42259C0.0877975 1.26631 0 1.05435 0 0.833333C0 0.61232 0.0877975 0.400358 0.244078 0.244078C0.400358 0.0877975 0.61232 0 0.833333 0C1.05435 0 1.26631 0.0877975 1.42259 0.244078C1.57887 0.400358 1.66667 0.61232 1.66667 0.833333ZM1.66667 5C1.66667 5.22101 1.57887 5.43297 1.42259 5.58926C1.26631 5.74554 1.05435 5.83333 0.833333 5.83333C0.61232 5.83333 0.400358 5.74554 0.244078 5.58926C0.0877975 5.43297 0 5.22101 0 5C0 4.77899 0.0877975 4.56702 0.244078 4.41074C0.400358 4.25446 0.61232 4.16667 0.833333 4.16667C1.05435 4.16667 1.26631 4.25446 1.42259 4.41074C1.57887 4.56702 1.66667 4.77899 1.66667 5ZM1.66667 9.16667C1.66667 9.38768 1.57887 9.59964 1.42259 9.75592C1.26631 9.9122 1.05435 10 0.833333 10C0.61232 10 0.400358 9.9122 0.244078 9.75592C0.0877975 9.59964 0 9.38768 0 9.16667C0 8.94565 0.0877975 8.73369 0.244078 8.57741C0.400358 8.42113 0.61232 8.33333 0.833333 8.33333C1.05435 8.33333 1.26631 8.42113 1.42259 8.57741C1.57887 8.73369 1.66667 8.94565 1.66667 9.16667Z" fill="#344054"/>
</svg>
