<svg width="20" height="20" viewBox="0 0 20 20" fill="none" xmlns="http://www.w3.org/2000/svg">
<path d="M4.61561 0C4.00357 0 3.4166 0.243131 2.98383 0.675907C2.55105 1.10868 2.30792 1.69565 2.30792 2.30769V13.8462C2.30792 14.4582 2.55105 15.0452 2.98383 15.4779C3.4166 15.9107 4.00357 16.1538 4.61561 16.1538V16.4662C4.61561 17.1008 4.45946 17.6277 4.20715 17.9569C3.95407 18.2846 3.63484 18.4615 3.07715 18.4615C2.51946 18.4615 2.20023 18.2846 1.94715 17.9569C1.69484 17.6285 1.53869 17.1 1.53869 16.4662V12.7646C1.54153 12.6477 1.51769 12.5317 1.46898 12.4254C1.42027 12.3191 1.34796 12.2253 1.25756 12.1512C1.16716 12.077 1.06104 12.0244 0.947272 11.9974C0.833502 11.9704 0.715077 11.9697 0.600995 11.9954C0.427328 12.0343 0.272532 12.1322 0.162985 12.2725C0.0534372 12.4128 -0.00408306 12.5867 0.00022561 12.7646V16.4662C0.00022561 17.3615 0.227149 18.22 0.74561 18.8946C1.26407 19.5677 2.10407 20 3.07715 20C4.05023 20 4.89023 19.5677 5.40869 18.8938C5.92715 18.22 6.15407 17.3615 6.15407 16.4662V16.1538C6.76611 16.1538 7.35308 15.9107 7.78586 15.4779C8.21863 15.0452 8.46176 14.4582 8.46176 13.8462V2.30769C8.46176 1.69565 8.21863 1.10868 7.78586 0.675907C7.35308 0.243131 6.76611 0 6.15407 0L4.61561 0ZM11.5387 0C10.9266 0 10.3397 0.243131 9.9069 0.675907C9.47413 1.10868 9.23099 1.69565 9.23099 2.30769V13.8462C9.23099 14.4582 9.47413 15.0452 9.9069 15.4779C10.3397 15.9107 10.9266 16.1538 11.5387 16.1538H16.9233C18.1979 16.1538 19.9279 15.1438 19.9279 8.07692C19.9279 1.01 18.1979 0 16.9233 0H11.5387ZM11.9233 2.30769H17.3079C17.4099 2.30769 17.5078 2.34821 17.5799 2.42034C17.652 2.49247 17.6925 2.5903 17.6925 2.69231V5C17.6925 5.10201 17.652 5.19983 17.5799 5.27196C17.5078 5.34409 17.4099 5.38462 17.3079 5.38462H11.9233C11.8213 5.38462 11.7235 5.34409 11.6513 5.27196C11.5792 5.19983 11.5387 5.10201 11.5387 5V2.69231C11.5387 2.5903 11.5792 2.49247 11.6513 2.42034C11.7235 2.34821 11.8213 2.30769 11.9233 2.30769ZM11.9233 6.92308H12.6925C12.7945 6.92308 12.8924 6.9636 12.9645 7.03573C13.0366 7.10786 13.0771 7.20569 13.0771 7.30769V8.07692C13.0771 8.17893 13.0366 8.27676 12.9645 8.34889C12.8924 8.42102 12.7945 8.46154 12.6925 8.46154H11.9233C11.8213 8.46154 11.7235 8.42102 11.6513 8.34889C11.5792 8.27676 11.5387 8.17893 11.5387 8.07692V7.30769C11.5387 7.20569 11.5792 7.10786 11.6513 7.03573C11.7235 6.9636 11.8213 6.92308 11.9233 6.92308ZM14.231 6.92308H15.0002C15.1022 6.92308 15.2001 6.9636 15.2722 7.03573C15.3443 7.10786 15.3848 7.20569 15.3848 7.30769V8.07692C15.3848 8.17893 15.3443 8.27676 15.2722 8.34889C15.2001 8.42102 15.1022 8.46154 15.0002 8.46154H14.231C14.129 8.46154 14.0312 8.42102 13.959 8.34889C13.8869 8.27676 13.8464 8.17893 13.8464 8.07692V7.30769C13.8464 7.20569 13.8869 7.10786 13.959 7.03573C14.0312 6.9636 14.129 6.92308 14.231 6.92308ZM16.5387 6.92308H17.3079C17.4099 6.92308 17.5078 6.9636 17.5799 7.03573C17.652 7.10786 17.6925 7.20569 17.6925 7.30769V8.07692C17.6925 8.17893 17.652 8.27676 17.5799 8.34889C17.5078 8.42102 17.4099 8.46154 17.3079 8.46154H16.5387C16.4367 8.46154 16.3389 8.42102 16.2667 8.34889C16.1946 8.27676 16.1541 8.17893 16.1541 8.07692V7.30769C16.1541 7.20569 16.1946 7.10786 16.2667 7.03573C16.3389 6.9636 16.4367 6.92308 16.5387 6.92308ZM11.9233 9.23077H12.6925C12.7945 9.23077 12.8924 9.27129 12.9645 9.34342C13.0366 9.41555 13.0771 9.51338 13.0771 9.61539V10.3846C13.0771 10.4866 13.0366 10.5845 12.9645 10.6566C12.8924 10.7287 12.7945 10.7692 12.6925 10.7692H11.9233C11.8213 10.7692 11.7235 10.7287 11.6513 10.6566C11.5792 10.5845 11.5387 10.4866 11.5387 10.3846V9.61539C11.5387 9.51338 11.5792 9.41555 11.6513 9.34342C11.7235 9.27129 11.8213 9.23077 11.9233 9.23077ZM14.231 9.23077H15.0002C15.1022 9.23077 15.2001 9.27129 15.2722 9.34342C15.3443 9.41555 15.3848 9.51338 15.3848 9.61539V10.3846C15.3848 10.4866 15.3443 10.5845 15.2722 10.6566C15.2001 10.7287 15.1022 10.7692 15.0002 10.7692H14.231C14.129 10.7692 14.0312 10.7287 13.959 10.6566C13.8869 10.5845 13.8464 10.4866 13.8464 10.3846V9.61539C13.8464 9.51338 13.8869 9.41555 13.959 9.34342C14.0312 9.27129 14.129 9.23077 14.231 9.23077ZM16.5387 9.23077H17.3079C17.4099 9.23077 17.5078 9.27129 17.5799 9.34342C17.652 9.41555 17.6925 9.51338 17.6925 9.61539V10.3846C17.6925 10.4866 17.652 10.5845 17.5799 10.6566C17.5078 10.7287 17.4099 10.7692 17.3079 10.7692H16.5387C16.4367 10.7692 16.3389 10.7287 16.2667 10.6566C16.1946 10.5845 16.1541 10.4866 16.1541 10.3846V9.61539C16.1541 9.51338 16.1946 9.41555 16.2667 9.34342C16.3389 9.27129 16.4367 9.23077 16.5387 9.23077ZM11.9233 11.5385H12.6925C12.7945 11.5385 12.8924 11.579 12.9645 11.6511C13.0366 11.7232 13.0771 11.8211 13.0771 11.9231V12.6923C13.0771 12.7943 13.0366 12.8921 12.9645 12.9643C12.8924 13.0364 12.7945 13.0769 12.6925 13.0769H11.9233C11.8213 13.0769 11.7235 13.0364 11.6513 12.9643C11.5792 12.8921 11.5387 12.7943 11.5387 12.6923V11.9231C11.5387 11.8211 11.5792 11.7232 11.6513 11.6511C11.7235 11.579 11.8213 11.5385 11.9233 11.5385ZM14.231 11.5385H15.0002C15.1022 11.5385 15.2001 11.579 15.2722 11.6511C15.3443 11.7232 15.3848 11.8211 15.3848 11.9231V12.6923C15.3848 12.7943 15.3443 12.8921 15.2722 12.9643C15.2001 13.0364 15.1022 13.0769 15.0002 13.0769H14.231C14.129 13.0769 14.0312 13.0364 13.959 12.9643C13.8869 12.8921 13.8464 12.7943 13.8464 12.6923V11.9231C13.8464 11.8211 13.8869 11.7232 13.959 11.6511C14.0312 11.579 14.129 11.5385 14.231 11.5385ZM16.5387 11.5385H17.3079C17.4099 11.5385 17.5078 11.579 17.5799 11.6511C17.652 11.7232 17.6925 11.8211 17.6925 11.9231V12.6923C17.6925 12.7943 17.652 12.8921 17.5799 12.9643C17.5078 13.0364 17.4099 13.0769 17.3079 13.0769H16.5387C16.4367 13.0769 16.3389 13.0364 16.2667 12.9643C16.1946 12.8921 16.1541 12.7943 16.1541 12.6923V11.9231C16.1541 11.8211 16.1946 11.7232 16.2667 11.6511C16.3389 11.579 16.4367 11.5385 16.5387 11.5385Z" fill="black"/>
</svg>
