<svg width="22" height="26" viewBox="0 0 22 26" fill="none" xmlns="http://www.w3.org/2000/svg">
<path d="M21.0669 17.6654C20.9761 17.556 20.8869 17.4466 20.7994 17.3411C19.5963 15.8859 18.8684 15.0076 18.8684 10.888C18.8684 8.75516 18.3582 7.00516 17.3525 5.69266C16.6109 4.72305 15.6085 3.9875 14.2873 3.44391C14.2703 3.43445 14.2551 3.42204 14.2424 3.40727C13.7672 1.81586 12.4667 0.75 11 0.75C9.53327 0.75 8.23335 1.81586 7.75811 3.40562C7.74545 3.41988 7.73048 3.4319 7.71382 3.44117C4.63054 4.71047 3.1321 7.1457 3.1321 10.8863C3.1321 15.0076 2.4053 15.8859 1.20108 17.3395C1.11358 17.445 1.02444 17.5522 0.933662 17.6637C0.699162 17.9466 0.550587 18.2906 0.505521 18.6552C0.460454 19.0198 0.520782 19.3897 0.679365 19.7211C1.01679 20.432 1.73593 20.8734 2.55679 20.8734H19.4492C20.2662 20.8734 20.9805 20.4326 21.319 19.7249C21.4782 19.3935 21.5391 19.0233 21.4945 18.6582C21.4498 18.2932 21.3014 17.9487 21.0669 17.6654ZM11 25.25C11.7902 25.2494 12.5656 25.0348 13.2438 24.6292C13.922 24.2236 14.4778 23.642 14.8522 22.946C14.8698 22.9127 14.8785 22.8753 14.8775 22.8376C14.8764 22.7999 14.8656 22.7631 14.8461 22.7308C14.8266 22.6985 14.7991 22.6718 14.7663 22.6532C14.7334 22.6347 14.6963 22.625 14.6586 22.625H7.34249C7.30471 22.6249 7.26755 22.6345 7.23461 22.653C7.20167 22.6715 7.17409 22.6982 7.15454 22.7305C7.13499 22.7629 7.12415 22.7997 7.12306 22.8375C7.12198 22.8752 7.13069 22.9126 7.14835 22.946C7.5227 23.6419 8.07839 24.2234 8.75649 24.6291C9.43459 25.0347 10.2098 25.2493 11 25.25Z" fill="black"/>
</svg>
