<svg width="20" height="20" viewBox="0 0 20 20" fill="none" xmlns="http://www.w3.org/2000/svg">
<path d="M3.34328 2.47292C2.80745 3.02083 2.80745 3.64583 3.34328 4.19375C3.6587 4.51625 4.14578 4.83542 4.79661 5.11667C6.0962 5.67917 7.93495 6.04167 9.99911 6.04167C12.0633 6.04167 13.902 5.67875 15.2016 5.11667C15.8524 4.83542 16.3391 4.51625 16.6549 4.19375C17.1908 3.64583 17.1908 3.02083 16.6549 2.47292C16.3395 2.15042 15.8524 1.83125 15.2016 1.55C13.902 0.9875 12.0633 0.625 9.99911 0.625C7.93495 0.625 6.0962 0.987917 4.79661 1.55C4.14578 1.83125 3.65911 2.15042 3.34328 2.47292Z" fill="black"/>
<path fill-rule="evenodd" clip-rule="evenodd" d="M1.66469 3.33379L1.66594 3.31421V3.33338C1.66594 4.00296 1.9826 4.59004 2.44969 5.06796C2.91469 5.54296 3.55635 5.94213 4.30052 6.26379C5.79094 6.90838 7.80594 7.29171 9.99927 7.29171C12.1926 7.29171 14.2076 6.90838 15.698 6.26421C16.4422 5.94213 17.0839 5.54338 17.5484 5.06796C18.0159 4.59004 18.3326 3.98629 18.3326 3.31671L18.3643 3.87296C18.3839 4.23963 18.4101 4.76296 18.4364 5.39088C18.4809 6.46004 18.5255 7.83463 18.5376 9.25629C18.4843 9.99129 17.7755 10.838 16.2226 11.5438C14.6618 12.2538 12.4618 12.7084 9.99927 12.7084C7.53677 12.7084 5.33677 12.2534 3.77594 11.5442C2.22302 10.838 1.51427 9.99129 1.46094 9.25671C1.47344 7.83463 1.5176 6.46004 1.56219 5.39088C1.59088 4.70478 1.62505 4.01893 1.66469 3.33338M3.54094 9.16671C3.54094 8.9457 3.62874 8.73373 3.78502 8.57745C3.9413 8.42117 4.15326 8.33338 4.37427 8.33338C4.59528 8.33338 4.80725 8.42117 4.96353 8.57745C5.11981 8.73373 5.2076 8.9457 5.2076 9.16671C5.2076 9.38772 5.11981 9.59968 4.96353 9.75596C4.80725 9.91224 4.59528 10 4.37427 10C4.15326 10 3.9413 9.91224 3.78502 9.75596C3.62874 9.59968 3.54094 9.38772 3.54094 9.16671ZM7.0826 10.7292C7.30362 10.7292 7.51558 10.6414 7.67186 10.4851C7.82814 10.3289 7.91594 10.1169 7.91594 9.89588C7.91594 9.67486 7.82814 9.4629 7.67186 9.30662C7.51558 9.15034 7.30362 9.06254 7.0826 9.06254C6.86159 9.06254 6.64963 9.15034 6.49335 9.30662C6.33707 9.4629 6.24927 9.67486 6.24927 9.89588C6.24927 10.1169 6.33707 10.3289 6.49335 10.4851C6.64963 10.6414 6.86159 10.7292 7.0826 10.7292Z" fill="black"/>
<path fill-rule="evenodd" clip-rule="evenodd" d="M1.56378 13.9928C1.51989 13.1879 1.49016 12.3822 1.47461 11.5762C1.97461 12.0074 2.59003 12.3774 3.26003 12.682C5.01711 13.4808 7.40044 13.9583 10.0004 13.9583C12.6004 13.9583 14.9838 13.4808 16.7409 12.682C17.4109 12.3774 18.0263 12.007 18.5263 11.5762C18.5071 12.5462 18.4721 13.3624 18.4371 13.9928C18.4115 14.4544 18.3792 14.9156 18.34 15.3762L18.3384 15.3987L18.3334 15.4491C18.3234 16.1053 18.0096 16.6808 17.55 17.1512C17.085 17.6262 16.4434 18.0253 15.6992 18.347C14.2088 18.9916 12.1934 19.3749 10.0004 19.3749C7.80753 19.3749 5.79211 18.9916 4.30169 18.3474C3.55753 18.0253 2.91586 17.6266 2.45086 17.1512C1.99128 16.6812 1.67753 16.1053 1.66753 15.4495L1.66044 15.3766L1.63628 15.0883C1.60823 14.7234 1.58406 14.3582 1.56378 13.9928ZM4.37544 16.4583C4.59646 16.4583 4.80842 16.3705 4.9647 16.2142C5.12098 16.0579 5.20878 15.8459 5.20878 15.6249C5.20878 15.4039 5.12098 15.1919 4.9647 15.0357C4.80842 14.8794 4.59646 14.7916 4.37544 14.7916C4.15443 14.7916 3.94247 14.8794 3.78619 15.0357C3.62991 15.1919 3.54211 15.4039 3.54211 15.6249C3.54211 15.8459 3.62991 16.0579 3.78619 16.2142C3.94247 16.3705 4.15443 16.4583 4.37544 16.4583ZM7.08378 17.1874C7.30479 17.1874 7.51675 17.0996 7.67303 16.9433C7.82931 16.7871 7.91711 16.5751 7.91711 16.3541C7.91711 16.1331 7.82931 15.9211 7.67303 15.7648C7.51675 15.6086 7.30479 15.5208 7.08378 15.5208C6.86276 15.5208 6.6508 15.6086 6.49452 15.7648C6.33824 15.9211 6.25044 16.1331 6.25044 16.3541C6.25044 16.5751 6.33824 16.7871 6.49452 16.9433C6.6508 17.0996 6.86276 17.1874 7.08378 17.1874Z" fill="black"/>
</svg>
