<svg width="20" height="20" viewBox="0 0 20 20" fill="none" xmlns="http://www.w3.org/2000/svg">
<path d="M3.65039 18.1751V17.0157C4.80664 16.7189 14.2535 17.0157 16.3504 17.0157V18.1751C16.3504 18.8376 13.5066 19.3751 10.0004 19.3751C6.49414 19.3751 3.65039 18.8376 3.65039 18.1751Z" fill="#8B5738"/>
<path d="M10.0004 18.15C13.5074 18.15 16.3504 17.6127 16.3504 16.95C16.3504 16.2873 13.5074 15.75 10.0004 15.75C6.49338 15.75 3.65039 16.2873 3.65039 16.95C3.65039 17.6127 6.49338 18.15 10.0004 18.15Z" fill="#FFB17A"/>
<path d="M10.0004 18.15C13.5074 18.15 16.3504 17.6127 16.3504 16.95C16.3504 16.2873 13.5074 15.75 10.0004 15.75C6.49338 15.75 3.65039 16.2873 3.65039 16.95C3.65039 17.6127 6.49338 18.15 10.0004 18.15Z" fill="#CC8552"/>
<path opacity="0.75" d="M10.9316 10.2327C10.8145 10.1843 10.7645 10.089 10.7645 9.9624C10.7645 9.83584 10.8035 9.74521 10.9176 9.70615C11.6379 9.41553 15.2566 8.02959 15.2566 3.7124L15.2285 2.95928L4.76289 2.94678L4.74414 3.73896C4.74414 7.9249 8.35039 9.40303 9.06914 9.69365C9.18633 9.74209 9.25977 9.82178 9.25977 9.96396C9.25977 10.1062 9.19883 10.1812 9.0832 10.2202C8.36289 10.5108 4.74414 11.8968 4.74414 16.214C4.75309 16.4512 4.83953 16.6789 4.99022 16.8624C5.14091 17.0458 5.34755 17.1748 5.57852 17.2296C6.36602 17.4155 7.82539 17.6312 10.3488 17.6312C12.5223 17.6312 13.7395 17.4733 14.416 17.314C14.8973 17.1999 15.2426 16.7765 15.2535 16.2827L15.2551 16.1874C15.2566 12.0015 11.652 10.5233 10.9316 10.2327Z" fill="#81D4FA"/>
<path opacity="0.39" d="M15.2289 2.95928L4.76328 2.94678L4.74609 3.65303C4.74609 3.65303 5.87891 4.23428 10.0008 4.23428C14.1227 4.23428 15.2555 3.65303 15.2555 3.65303L15.2289 2.95928Z" fill="#1D44B3"/>
<path d="M3.65039 2.80319V1.5735C4.77227 1.4235 14.7301 1.5735 16.3504 1.5735V2.80319C16.3504 3.32819 13.5066 3.75319 10.0004 3.75319C6.49414 3.75319 3.65039 3.32819 3.65039 2.80319Z" fill="#8B5738"/>
<path d="M10.0004 2.525C13.5074 2.525 16.3504 2.09967 16.3504 1.575C16.3504 1.05033 13.5074 0.625 10.0004 0.625C6.49338 0.625 3.65039 1.05033 3.65039 1.575C3.65039 2.09967 6.49338 2.525 10.0004 2.525Z" fill="#CC8552"/>
<path d="M14.1551 16.9639C14.2988 16.9218 14.377 16.7593 14.3066 16.6264C13.816 15.6983 11.7223 15.6718 10.9301 13.928C10.402 12.7639 10.3723 11.1452 10.3566 10.453C10.3348 9.51707 10.802 9.31551 10.802 9.31551C13.0145 8.42488 14.641 6.36863 14.7348 4.5327C14.7441 4.34988 11.2691 5.96551 10.0738 6.19832C7.86445 6.62957 5.66289 6.06238 5.65039 6.14051C6.46914 7.9327 8.11758 8.86863 9.22227 9.31551C9.48477 9.42332 9.91914 9.83113 9.90508 11.0561C9.89414 11.9327 9.78477 14.2436 8.27383 15.2264C7.70508 15.5968 6.44727 16.1389 6.21289 16.728C6.16133 16.8577 6.23477 17.0046 6.3707 17.0389C6.80195 17.1483 8.11758 17.3405 10.1629 17.3405C11.7707 17.3421 13.3582 17.1952 14.1551 16.9639Z" fill="#FFCA28"/>
<path d="M6.62076 6.7641C7.45826 7.19691 9.29576 7.8141 10.202 7.5016C11.1083 7.1891 14.6129 5.00004 14.7333 4.53285C14.8833 3.95473 10.6708 5.42504 9.18794 5.76879C8.18326 6.0016 6.26451 5.88129 5.83326 5.97191C5.40357 6.06098 5.85044 6.36566 6.62076 6.7641Z" fill="#E2A610"/>
<path opacity="0.6" d="M7.15507 5.88426C7.35195 6.34363 7.71132 7.38582 7.24257 7.56394C6.77382 7.74363 6.08789 7.07801 5.76289 6.40926C5.43789 5.74051 5.46757 4.85301 5.9582 4.83894C6.44882 4.82488 6.89414 5.27644 7.15507 5.88426ZM6.70351 12.5936C6.21445 13.1655 5.84726 13.9343 5.98632 14.6764C6.1332 15.4593 6.86132 15.2436 7.11445 15.0452C7.9207 14.4124 7.70039 13.6014 8.32382 12.6905C8.43007 12.5343 8.87382 12.0452 8.81132 11.7374C8.77382 11.5546 8.34882 11.4608 7.57539 11.8483C7.23476 12.0202 6.95507 12.3014 6.70351 12.5936Z" fill="white"/>
</svg>
