<svg width="20" height="20" viewBox="0 0 20 20" fill="none" xmlns="http://www.w3.org/2000/svg">
<path d="M0.515625 10C0.515625 17.3005 8.41912 21.8635 14.7416 18.2135C16.1833 17.381 17.3805 16.1838 18.2129 14.742C19.0453 13.3003 19.4835 11.6648 19.4836 10C19.4836 2.69952 11.5801 -1.86348 5.25763 1.78702C3.816 2.61946 2.61885 3.81666 1.78647 5.25832C0.954089 6.69998 0.515794 8.33532 0.515625 10Z" fill="#AEB9E1" stroke="#231F20" stroke-width="0.5" stroke-miterlimit="10"/>
<path d="M3.67773 9.99993C3.67773 14.8669 8.94623 17.9089 13.1617 15.4754C14.1227 14.9203 14.9206 14.1221 15.4755 13.161C16.0303 12.1999 16.3225 11.1097 16.3227 9.99993C16.3227 5.13293 11.0542 2.09093 6.83873 4.52443C5.8778 5.07957 5.07985 5.87778 4.525 6.83888C3.97016 7.79999 3.67795 8.89016 3.67773 9.99993Z" fill="white" stroke="#231F20" stroke-width="0.5" stroke-miterlimit="10"/>
<path d="M10.7072 9.50046C10.7072 7.52796 10.2207 6.13696 9.61367 6.13696C9.00667 6.13696 8.51367 7.00946 8.51367 8.91896C8.51367 11.3025 9.52517 11.688 11.1312 11.694C12.7367 11.701 13.7422 11.2075 13.7487 10.6005C13.7552 9.99346 13.1097 9.50046 10.7072 9.50046Z" fill="#AEB9E1" stroke="#231F20" stroke-width="0.5" stroke-miterlimit="10"/>
<path d="M13.9004 2.83643C14.861 3.07802 15.6945 3.67432 16.2334 4.50543" stroke="white" stroke-width="0.5" stroke-miterlimit="10" stroke-linecap="round"/>
</svg>
