<svg width="20" height="20" viewBox="0 0 20 20" fill="none" xmlns="http://www.w3.org/2000/svg">
<path d="M8.93071 1.31554L0.805709 17.5655C0.502584 18.1937 0.765084 18.9483 1.39165 19.2515C1.5604 19.3327 1.74321 19.3765 1.93071 19.378H18.1807C18.8776 19.3718 19.4385 18.8015 19.4323 18.1046C19.4304 17.9178 19.3872 17.7337 19.3057 17.5655L11.1807 1.31554C11.0755 1.10742 10.9147 0.932552 10.7161 0.810384C10.5175 0.688216 10.2889 0.623535 10.0557 0.623535C9.82253 0.623535 9.59392 0.688216 9.39531 0.810384C9.1967 0.932552 9.03587 1.10742 8.93071 1.31554Z" fill="#F2A600"/>
<path d="M8.36906 2.4563L0.744064 17.675C0.458127 18.2641 0.705002 18.9735 1.29406 19.2594C1.44875 19.3344 1.61906 19.375 1.79094 19.3782H17.0253C17.1802 19.3767 17.3334 19.3448 17.4759 19.2842C17.6185 19.2236 17.7478 19.1355 17.8563 19.0249C17.9648 18.9144 18.0505 18.7835 18.1085 18.6398C18.1664 18.4962 18.1955 18.3425 18.1941 18.1875C18.1923 18.0097 18.1507 17.8346 18.0722 17.675L10.4628 2.4563C10.3288 2.1788 10.0901 1.96583 9.79922 1.86417C9.5083 1.76252 9.18893 1.78048 8.91125 1.91411C8.67484 2.02893 8.48388 2.21988 8.36906 2.4563Z" fill="#FFCC32"/>
<path opacity="0.2" d="M10.0554 5.31567C10.7741 5.31567 11.3523 5.8938 11.3054 6.56567L10.7741 14.0657C10.7148 14.4625 10.346 14.7375 9.94915 14.6782C9.79483 14.6554 9.65195 14.5835 9.54164 14.4732C9.43134 14.3629 9.35946 14.22 9.33665 14.0657L8.8054 6.56567C8.75852 5.8938 9.33665 5.31567 10.0554 5.31567ZM10.0554 15.3157C10.5726 15.3157 10.9929 15.736 10.9929 16.2532C10.9929 16.7704 10.5726 17.1907 10.0554 17.1907C9.53821 17.1907 9.1179 16.7704 9.1179 16.2532C9.1179 15.736 9.53821 15.3157 10.0554 15.3157Z" fill="#424242"/>
<path d="M10.0554 5.31567C10.7741 5.31567 11.3523 5.8938 11.3054 6.56567L10.7741 14.0657C10.7148 14.4625 10.346 14.7375 9.94915 14.6782C9.79483 14.6554 9.65195 14.5835 9.54164 14.4732C9.43134 14.3629 9.35946 14.22 9.33665 14.0657L8.8054 6.56567C8.75852 5.8938 9.33665 5.31567 10.0554 5.31567Z" fill="url(#paint0_linear_30_6881)"/>
<path d="M10.0566 17.1907C10.5744 17.1907 10.9941 16.7709 10.9941 16.2532C10.9941 15.7354 10.5744 15.3157 10.0566 15.3157C9.53887 15.3157 9.11914 15.7354 9.11914 16.2532C9.11914 16.7709 9.53887 17.1907 10.0566 17.1907Z" fill="url(#paint1_linear_30_6881)"/>
<path d="M8.36944 3.59676C8.18194 3.83114 5.02569 10.003 5.02569 10.003C5.02569 10.003 4.74444 10.4718 5.13507 10.7374C5.49444 10.9874 5.82257 10.6905 5.96319 10.4561C6.10382 10.2218 8.96319 4.69051 9.07257 4.42489C9.16632 4.1327 9.10069 3.81395 8.90069 3.58114C8.69757 3.39364 8.49444 3.42489 8.36944 3.59676Z" fill="#FFF170"/>
<path d="M4.90039 12.2859C5.18516 12.2859 5.41602 12.055 5.41602 11.7703C5.41602 11.4855 5.18516 11.2546 4.90039 11.2546C4.61562 11.2546 4.38477 11.4855 4.38477 11.7703C4.38477 12.055 4.61562 12.2859 4.90039 12.2859Z" fill="#FFF170"/>
<defs>
<linearGradient id="paint0_linear_30_6881" x1="10.0554" y1="5.04224" x2="10.0554" y2="17.3375" gradientUnits="userSpaceOnUse">
<stop stop-color="#424242"/>
<stop offset="1" stop-color="#212121"/>
</linearGradient>
<linearGradient id="paint1_linear_30_6881" x1="10.0566" y1="5.66411" x2="10.0566" y2="17.9594" gradientUnits="userSpaceOnUse">
<stop stop-color="#424242"/>
<stop offset="1" stop-color="#212121"/>
</linearGradient>
</defs>
</svg>
