<svg width="20" height="21" viewBox="0 0 20 21" fill="none" xmlns="http://www.w3.org/2000/svg">
<path fill-rule="evenodd" clip-rule="evenodd" d="M9.99934 2.1665C14.6018 2.1665 18.3327 5.89744 18.3327 10.4998C18.3327 15.1022 14.6018 18.8332 9.99934 18.8332C5.39699 18.8332 1.66602 15.1022 1.66602 10.4998C1.66602 5.89744 5.39699 2.1665 9.99934 2.1665ZM10.8345 9.6665H9.16785V14.6665H10.8345V9.6665ZM10.0078 6.12482C9.40024 6.12482 8.95949 6.56311 8.95949 7.15494C8.95949 7.77072 9.38863 8.20818 10.0078 8.20818C10.6029 8.20818 11.0429 7.77068 11.0429 7.1665C11.0429 6.56314 10.6029 6.12482 10.0078 6.12482Z" fill="black"/>
</svg>
