<svg width="14" height="14" viewBox="0 0 14 14" fill="none" xmlns="http://www.w3.org/2000/svg">
<path d="M8.92148 4.49992C8.72982 4.49992 8.5701 4.43603 8.44232 4.30825C8.31454 4.18047 8.25065 4.01742 8.25065 3.81908V1.01409C8.25065 0.815752 8.31565 0.652696 8.44565 0.524919C8.57565 0.397141 8.73676 0.333252 8.92898 0.333252H12.9957C13.1884 0.333252 13.3484 0.397141 13.4757 0.524919C13.6029 0.652696 13.6668 0.815752 13.6673 1.01409V3.81908C13.6673 4.01797 13.6023 4.18103 13.4723 4.30825C13.3423 4.43603 13.1812 4.49992 12.989 4.49992H8.92148ZM1.00482 6.99992C0.813151 6.99992 0.653429 6.93603 0.525651 6.80825C0.397873 6.68047 0.333984 6.52214 0.333984 6.33325V0.999919C0.333984 0.81103 0.398985 0.652696 0.528985 0.524919C0.658985 0.397141 0.820096 0.333252 1.01232 0.333252H5.07898C5.27176 0.333252 5.43176 0.397141 5.55898 0.524919C5.68621 0.652696 5.7501 0.81103 5.75065 0.999919V6.33325C5.75065 6.52214 5.68565 6.68047 5.55565 6.80825C5.42565 6.93603 5.26454 6.99992 5.07232 6.99992H1.00482ZM8.92148 13.6666C8.72982 13.6666 8.5701 13.6027 8.44232 13.4749C8.31454 13.3471 8.25065 13.1888 8.25065 12.9999V7.66659C8.25065 7.4777 8.31565 7.31936 8.44565 7.19158C8.57565 7.06381 8.73676 6.99992 8.92898 6.99992H12.9957C13.1884 6.99992 13.3484 7.06381 13.4757 7.19158C13.6029 7.31936 13.6668 7.4777 13.6673 7.66659V12.9999C13.6673 13.1888 13.6023 13.3471 13.4723 13.4749C13.3423 13.6027 13.1812 13.6666 12.989 13.6666H8.92148ZM1.00482 13.6666C0.813151 13.6666 0.653429 13.6027 0.525651 13.4749C0.397873 13.3471 0.333984 13.1841 0.333984 12.9858V10.1808C0.333984 9.98242 0.398985 9.81936 0.528985 9.69158C0.658985 9.56381 0.820096 9.49992 1.01232 9.49992H5.07898C5.27176 9.49992 5.43176 9.56381 5.55898 9.69158C5.68621 9.81936 5.7501 9.98242 5.75065 10.1808V12.9858C5.75065 13.1846 5.68565 13.3477 5.55565 13.4749C5.42565 13.6027 5.26454 13.6666 5.07232 13.6666H1.00482Z" fill="black"/>
</svg>
