<svg width="20" height="21" viewBox="0 0 20 21" fill="none" xmlns="http://www.w3.org/2000/svg">
<path d="M9.95768 15.4998C10.2493 15.4998 10.496 15.399 10.6977 15.1973C10.8994 14.9957 10.9999 14.7493 10.9993 14.4582C10.9988 14.1671 10.8982 13.9204 10.6977 13.7182C10.4971 13.5159 10.2505 13.4154 9.95768 13.4165C9.66491 13.4176 9.41852 13.5184 9.21852 13.719C9.01852 13.9196 8.91768 14.1659 8.91602 14.4582C8.91435 14.7504 9.01518 14.9971 9.21852 15.1982C9.42185 15.3993 9.66824 15.4998 9.95768 15.4998ZM9.99935 18.8332C8.84657 18.8332 7.76324 18.6143 6.74935 18.1765C5.73546 17.7387 4.85352 17.1451 4.10352 16.3957C3.35352 15.6462 2.75991 14.7643 2.32268 13.7498C1.88546 12.7354 1.66657 11.6521 1.66602 10.4998C1.66546 9.34762 1.88435 8.26428 2.32268 7.24984C2.76102 6.23539 3.35463 5.35345 4.10352 4.604C4.85241 3.85456 5.73435 3.26095 6.74935 2.82317C7.76435 2.38539 8.84768 2.1665 9.99935 2.1665C11.151 2.1665 12.2343 2.38539 13.2493 2.82317C14.2643 3.26095 15.1463 3.85456 15.8952 4.604C16.6441 5.35345 17.238 6.23539 17.6768 7.24984C18.1157 8.26428 18.3344 9.34762 18.3327 10.4998C18.331 11.6521 18.1121 12.7354 17.676 13.7498C17.2399 14.7643 16.6463 15.6462 15.8952 16.3957C15.1441 17.1451 14.2621 17.739 13.2493 18.1773C12.2366 18.6157 11.1532 18.8343 9.99935 18.8332ZM10.0827 6.9165C10.4299 6.9165 10.7321 7.02762 10.9893 7.24984C11.2466 7.47206 11.3749 7.74984 11.3743 8.08317C11.3743 8.38873 11.2807 8.65956 11.0935 8.89567C10.9063 9.13178 10.6943 9.354 10.4577 9.56234C10.1382 9.84012 9.85713 10.1457 9.61435 10.479C9.37157 10.8123 9.24991 11.1873 9.24935 11.604C9.24935 11.7984 9.3224 11.9618 9.46852 12.094C9.61463 12.2262 9.78463 12.2921 9.97852 12.2915C10.1868 12.2915 10.3641 12.2221 10.5102 12.0832C10.6563 11.9443 10.7499 11.7707 10.791 11.5623C10.8466 11.2707 10.9716 11.0104 11.166 10.7815C11.3605 10.5526 11.5688 10.3337 11.791 10.1248C12.1105 9.81928 12.3849 9.48595 12.6143 9.12484C12.8438 8.76373 12.9582 8.36095 12.9577 7.9165C12.9577 7.20817 12.6696 6.62845 12.0935 6.17734C11.5174 5.72623 10.8471 5.50039 10.0827 5.49984C9.55491 5.49984 9.05157 5.61095 8.57268 5.83317C8.09379 6.05539 7.72907 6.39567 7.47852 6.854C7.38129 7.02067 7.35018 7.19789 7.38518 7.38567C7.42018 7.57345 7.51379 7.71567 7.66602 7.81234C7.86046 7.92345 8.06185 7.95817 8.27018 7.9165C8.47852 7.87484 8.65213 7.75678 8.79102 7.56234C8.94379 7.354 9.1349 7.19428 9.36435 7.08317C9.59379 6.97206 9.83324 6.9165 10.0827 6.9165Z" fill="black"/>
</svg>
