<svg width="38" height="36" viewBox="0 0 38 36" fill="none" xmlns="http://www.w3.org/2000/svg">
<path fill-rule="evenodd" clip-rule="evenodd" d="M4.18553 10.9421C6.84949 10.7308 11.5781 10.479 19 10.479C26.4219 10.479 31.1505 10.7308 33.8152 10.9421C34.8651 11.0221 35.8424 11.5087 36.5391 12.2982C37.2358 13.0877 37.5969 14.1179 37.5456 15.1696C37.3706 19.2974 36.822 22.6976 36.2259 25.2935C35.6321 27.8775 34.1913 30.0355 32.1488 31.4328C32.3602 31.7242 32.5446 32.0551 32.6729 32.4272C33.0077 33.4009 32.6206 34.2591 32.0435 34.7879C31.5052 35.2795 30.7737 35.5424 30.0802 35.5796C28.2451 35.6778 24.6952 35.8123 18.9992 35.8123C13.3032 35.8123 9.75253 35.6778 7.91824 35.5796C7.22632 35.5424 6.49482 35.2803 5.95728 34.7879C5.38015 34.2607 4.99224 33.4041 5.32632 32.4295C5.48307 31.972 5.7269 31.5745 6.0024 31.2365C3.83403 29.669 2.3354 27.2821 1.7274 24.4773C1.06007 21.416 0.639406 18.3061 0.469446 15.1775C0.409277 14.1252 0.765163 13.0914 1.46034 12.299C2.15552 11.5067 3.13429 11.0194 4.18553 10.9421Z" fill="#04B4FC"/>
<path fill-rule="evenodd" clip-rule="evenodd" d="M19.8827 2.94239C20.2239 1.41764 21.607 0.154137 23.3708 0.38847C24.0192 0.474762 24.8037 0.618053 25.6904 0.855553C26.5786 1.09385 27.3291 1.36222 27.934 1.6116C29.579 2.29085 30.1451 4.07526 29.678 5.56676L28.0931 10.6279C24.7952 10.5141 21.4955 10.4647 18.1957 10.4798L19.8827 2.94239ZM17.8497 29.0151C17.1451 28.9241 16.716 28.3082 16.6939 27.5981C16.6633 26.5066 16.6438 25.4148 16.6353 24.3229C15.5434 24.3144 14.4516 24.2946 13.3602 24.2636C12.65 24.2422 12.0341 23.8123 11.9431 23.1077C11.9035 22.7974 11.875 22.4158 11.875 21.9582C11.875 21.5006 11.9035 21.1198 11.9431 20.8079C12.0341 20.1033 12.65 19.6743 13.3602 19.6521C14.4516 19.6215 15.5434 19.602 16.6353 19.5935C16.6488 18.1186 16.6725 17.0404 16.6947 16.3184C16.716 15.6083 17.1459 14.9923 17.8505 14.9013C18.1616 14.8617 18.5432 14.8332 19 14.8332C19.4568 14.8332 19.8384 14.8617 20.1503 14.9013C20.8549 14.9923 21.284 15.6083 21.3061 16.3184C21.3275 17.0404 21.3512 18.1186 21.3647 19.5935C22.8396 19.607 23.9178 19.6307 24.6398 19.6529C25.35 19.6743 25.9659 20.1041 26.0569 20.8087C26.0965 21.1198 26.125 21.5014 26.125 21.9582C26.125 22.415 26.0965 22.7966 26.0569 23.1085C25.9659 23.8131 25.35 24.2422 24.6398 24.2643C23.9178 24.2857 22.8396 24.3095 21.3647 24.3229C21.3562 25.4148 21.3364 26.5066 21.3053 27.5981C21.284 28.3082 20.8541 28.9241 20.1495 29.0151C19.8384 29.0547 19.4568 29.0832 19 29.0832C18.5432 29.0832 18.1616 29.0547 17.8497 29.0151Z" fill="#101828"/>
</svg>
