<svg width="20" height="21" viewBox="0 0 20 21" fill="none" xmlns="http://www.w3.org/2000/svg">
<path fill-rule="evenodd" clip-rule="evenodd" d="M9.58274 2.16675C8.89238 2.16675 8.33274 2.72639 8.33274 3.41675V3.72042C8.33274 3.91054 8.20359 4.07523 8.02201 4.13154C7.6295 4.25328 7.25251 4.4103 6.89476 4.5989C6.72655 4.68758 6.51874 4.66245 6.38429 4.528L6.16919 4.3129C5.68103 3.82474 4.88958 3.82474 4.40142 4.3129L3.81217 4.90215C3.32401 5.39031 3.32401 6.18176 3.81217 6.66992L4.02726 6.88502C4.16172 7.01948 4.18685 7.22728 4.09817 7.39549C3.90958 7.75323 3.75256 8.1302 3.63083 8.52269C3.57451 8.70427 3.40983 8.83341 3.21971 8.83341H2.91602C2.22566 8.83341 1.66602 9.39306 1.66602 10.0834V10.9167C1.66602 11.6071 2.22566 12.1667 2.91602 12.1667H3.21971C3.40983 12.1667 3.57451 12.2959 3.63083 12.4775C3.75256 12.87 3.90958 13.2469 4.09817 13.6047C4.18685 13.7729 4.16172 13.9807 4.02726 14.1151L3.81216 14.3302C3.32401 14.8184 3.32401 15.6099 3.81216 16.098L4.40142 16.6873C4.88958 17.1754 5.68103 17.1754 6.16919 16.6873L6.38429 16.4722C6.51874 16.3377 6.72655 16.3126 6.89476 16.4013C7.25251 16.5899 7.6295 16.7469 8.02201 16.8686C8.20359 16.9249 8.33274 17.0896 8.33274 17.2797V17.5834C8.33274 18.2738 8.89238 18.8334 9.58274 18.8334H10.4161C11.1064 18.8334 11.6661 18.2738 11.6661 17.5834V17.2797C11.6661 17.0896 11.7952 16.9249 11.9768 16.8686C12.3693 16.7469 12.7462 16.5898 13.1039 16.4013C13.2721 16.3126 13.48 16.3377 13.6144 16.4722L13.8295 16.6873C14.3177 17.1754 15.1091 17.1754 15.5973 16.6873L16.1865 16.098C16.6747 15.6099 16.6747 14.8184 16.1865 14.3302L15.9714 14.1151C15.837 13.9807 15.8119 13.7729 15.9005 13.6047C16.0891 13.2469 16.2461 12.87 16.3679 12.4775C16.4242 12.2959 16.5889 12.1667 16.779 12.1667H17.0827C17.773 12.1667 18.3327 11.6071 18.3327 10.9167V10.0834C18.3327 9.39306 17.773 8.83342 17.0827 8.83342H16.779C16.5889 8.83342 16.4242 8.70427 16.3679 8.52269C16.2461 8.1302 16.0891 7.75323 15.9005 7.39549C15.8119 7.22728 15.837 7.01948 15.9714 6.88502L16.1865 6.66992C16.6747 6.18176 16.6747 5.39031 16.1865 4.90215L15.5973 4.3129C15.1091 3.82474 14.3177 3.82474 13.8295 4.3129L13.6144 4.528C13.48 4.66245 13.2721 4.68758 13.1039 4.5989C12.7462 4.41032 12.3693 4.25331 11.9768 4.13158C11.7952 4.07526 11.6661 3.91057 11.6661 3.72046V3.41675C11.6661 2.72639 11.1064 2.16675 10.4161 2.16675H9.58274ZM9.99935 13.0001C11.3801 13.0001 12.4993 11.8808 12.4993 10.5001C12.4993 9.11937 11.3801 8.00008 9.99935 8.00008C8.61864 8.00008 7.49935 9.11937 7.49935 10.5001C7.49935 11.8808 8.61864 13.0001 9.99935 13.0001Z" fill="black"/>
</svg>
