<svg width="20" height="20" viewBox="0 0 20 20" fill="none" xmlns="http://www.w3.org/2000/svg">
<path d="M17.5217 7.33666V9.17833C17.5217 9.34409 17.4559 9.50306 17.3387 9.62027C17.2215 9.73748 17.0625 9.80333 16.8967 9.80333C16.731 9.80333 16.572 9.73748 16.4548 9.62027C16.3376 9.50306 16.2717 9.34409 16.2717 9.17833V7.33666C16.2771 7.12052 16.2403 6.90541 16.1634 6.70333L10.0801 10.3533V17.1783C10.1762 17.15 10.2679 17.1111 10.3551 17.0617L12.4634 15.895C12.6066 15.8196 12.7734 15.8026 12.9288 15.8477C13.0843 15.8927 13.2162 15.9963 13.2967 16.1367C13.3715 16.2808 13.3872 16.4484 13.3405 16.604C13.2939 16.7595 13.1885 16.8908 13.0467 16.97L10.9467 18.1367C10.4855 18.3935 9.96634 18.5284 9.43841 18.5284C8.91048 18.5284 8.3913 18.3935 7.93008 18.1367L2.93008 15.3867C2.44757 15.113 2.04565 14.717 1.76477 14.2386C1.4839 13.7603 1.33397 13.2164 1.33008 12.6617V7.33666C1.33008 6.77916 1.48008 6.23249 1.76341 5.75333C1.81119 5.66721 1.86674 5.58666 1.93008 5.51166C2.19009 5.13904 2.53222 4.83112 2.93008 4.61166L7.93008 1.85333C8.39347 1.60315 8.91181 1.47217 9.43841 1.47217C9.96502 1.47217 10.4834 1.60315 10.9467 1.85333L15.9467 4.61166C16.2967 4.80416 16.6042 5.06833 16.8467 5.38666C16.884 5.42499 16.9173 5.46666 16.9467 5.51166C17.0101 5.58666 17.0656 5.66721 17.1134 5.75333C17.3919 6.23378 17.5331 6.78145 17.5217 7.33666Z" fill="black"/>
<path d="M18.4458 14.0033C18.3884 14.0623 18.3197 14.1091 18.2438 14.1411C18.168 14.1731 18.0865 14.1896 18.0041 14.1896C17.9218 14.1896 17.8403 14.1731 17.7645 14.1411C17.6886 14.1091 17.6199 14.0623 17.5625 14.0033L16.7291 13.17V15.9866C16.7291 16.1524 16.6633 16.3114 16.5461 16.4286C16.4289 16.5458 16.2699 16.6116 16.1041 16.6116C15.9384 16.6116 15.7794 16.5458 15.6622 16.4286C15.545 16.3114 15.4791 16.1524 15.4791 15.9866V13.17L14.6458 14.0033C14.5881 14.0617 14.5193 14.108 14.4435 14.1395C14.3676 14.171 14.2863 14.187 14.2041 14.1866C14.1218 14.189 14.0398 14.1739 13.9637 14.1423C13.8875 14.1107 13.819 14.0633 13.7625 14.0033C13.7035 13.9458 13.6567 13.8772 13.6247 13.8013C13.5927 13.7254 13.5762 13.6439 13.5762 13.5616C13.5762 13.4793 13.5927 13.3978 13.6247 13.3219C13.6567 13.2461 13.7035 13.1774 13.7625 13.12L15.4291 11.4533C15.5239 11.3603 15.6338 11.2843 15.7541 11.2283C15.8375 11.1938 15.9236 11.1716 16.0125 11.1616H16.2791C16.3686 11.1738 16.4547 11.1988 16.5375 11.2366C16.6585 11.2832 16.7669 11.3574 16.8541 11.4533L18.5208 13.12C18.5741 13.1828 18.6145 13.2555 18.6396 13.334C18.6647 13.4125 18.674 13.4951 18.667 13.5772C18.6601 13.6593 18.6369 13.7392 18.599 13.8123C18.561 13.8855 18.5089 13.9504 18.4458 14.0033Z" fill="black"/>
</svg>
