<svg width="22" height="26" viewBox="0 0 22 26" fill="none" xmlns="http://www.w3.org/2000/svg">
<path d="M21.0661 17.6654C20.9753 17.556 20.8862 17.4466 20.7987 17.3411C19.5956 15.8859 18.8677 15.0076 18.8677 10.888C18.8677 8.75516 18.3574 7.00516 17.3517 5.69266C16.6102 4.72305 15.6077 3.9875 14.2865 3.44391C14.2695 3.43445 14.2543 3.42204 14.2416 3.40727C13.7664 1.81586 12.4659 0.75 10.9992 0.75C9.53251 0.75 8.23259 1.81586 7.75735 3.40562C7.74469 3.41988 7.72971 3.4319 7.71305 3.44117C4.62977 4.71047 3.13134 7.1457 3.13134 10.8863C3.13134 15.0076 2.40454 15.8859 1.20032 17.3395C1.11282 17.445 1.02368 17.5522 0.932899 17.6637C0.698399 17.9466 0.549824 18.2906 0.504758 18.6552C0.459691 19.0198 0.520019 19.3897 0.678602 19.7211C1.01602 20.432 1.73516 20.8734 2.55602 20.8734H19.4484C20.2655 20.8734 20.9797 20.4326 21.3182 19.7249C21.4775 19.3935 21.5384 19.0233 21.4937 18.6582C21.449 18.2932 21.3006 17.9487 21.0661 17.6654ZM10.9992 25.25C11.7895 25.2494 12.5648 25.0348 13.243 24.6292C13.9212 24.2236 14.477 23.642 14.8514 22.946C14.8691 22.9127 14.8778 22.8753 14.8767 22.8376C14.8756 22.7999 14.8648 22.7631 14.8454 22.7308C14.8259 22.6985 14.7984 22.6718 14.7655 22.6532C14.7326 22.6347 14.6955 22.625 14.6578 22.625H7.34173C7.30395 22.6249 7.26679 22.6345 7.23385 22.653C7.20091 22.6715 7.17333 22.6982 7.15378 22.7305C7.13423 22.7629 7.12338 22.7997 7.1223 22.8375C7.12121 22.8752 7.12993 22.9126 7.14759 22.946C7.52194 23.6419 8.07763 24.2234 8.75573 24.6291C9.43383 25.0347 10.2091 25.2493 10.9992 25.25Z" fill="#04B4FC"/>
</svg>
