<svg width="20" height="20" viewBox="0 0 20 20" fill="none" xmlns="http://www.w3.org/2000/svg">
<path d="M2 0C1.46957 0 0.960859 0.210714 0.585786 0.585786C0.210714 0.960859 0 1.46957 0 2V12H2V2H12V0H2ZM6 4C5.46957 4 4.96086 4.21071 4.58579 4.58579C4.21071 4.96086 4 5.46957 4 6V16H6V6H16V4H6ZM18 10V18H10V10H18ZM18 8H10C9.46957 8 8.96086 8.21071 8.58579 8.58579C8.21071 8.96086 8 9.46957 8 10V18C8 18.5304 8.21071 19.0391 8.58579 19.4142C8.96086 19.7893 9.46957 20 10 20H18C18.5304 20 19.0391 19.7893 19.4142 19.4142C19.7893 19.0391 20 18.5304 20 18V10C20 9.46957 19.7893 8.96086 19.4142 8.58579C19.0391 8.21071 18.5304 8 18 8ZM17 15H11V13H17V15Z" fill="#636363"/>
</svg>
