<svg width="20" height="20" viewBox="0 0 20 20" fill="none" xmlns="http://www.w3.org/2000/svg">
<path d="M11.5719 18.0406C13.35 19.8188 16.2609 19.8188 18.0406 18.0406C19.8188 16.2625 19.8188 13.3516 18.0406 11.5719L13.2344 6.76562L6.76562 13.2344L11.5719 18.0406Z" fill="#F44336"/>
<path d="M13.2336 6.76558L8.42734 1.95933C6.64922 0.181201 3.73828 0.181201 1.95859 1.95933C0.180469 3.73745 0.180469 6.64839 1.95859 8.42808L6.76484 13.2343L13.2336 6.76558Z" fill="#FDD835"/>
<path d="M13.5659 7.09743L7.09719 13.5663L6.76562 13.2351L13.2344 6.76587L13.5659 7.09743Z" fill="#C62828"/>
<path opacity="0.65" d="M10.8482 5.66407C12.7482 7.73439 16.1951 11.6406 16.1951 11.6406C16.642 12.0484 17.256 13.1 16.8545 13.4625C16.4263 13.85 15.4295 13.0328 14.9826 12.625L7.6904 5.76407C7.24508 5.35626 5.75446 4.03595 6.04508 3.10626C6.59352 1.35157 8.73258 3.35782 10.8482 5.66407Z" fill="white"/>
</svg>
