<svg width="20" height="16" viewBox="0 0 20 16" fill="none" xmlns="http://www.w3.org/2000/svg">
<path d="M1.65562 9.42016C1.57161 9.50406 1.50497 9.60369 1.4595 9.71337C1.41403 9.82304 1.39062 9.9406 1.39062 10.0593C1.39062 10.1781 1.41403 10.2956 1.4595 10.4053C1.50497 10.515 1.57161 10.6146 1.65562 10.6985L5.99145 15.0352C6.34479 15.3877 6.91645 15.3877 7.26979 15.0352L18.344 3.96016C18.5134 3.79075 18.6085 3.56099 18.6085 3.32141C18.6085 3.08183 18.5134 2.85207 18.344 2.68266L16.6273 0.965993C16.4579 0.796587 16.2281 0.701416 15.9885 0.701416C15.749 0.701416 15.5192 0.796587 15.3498 0.965993L6.63062 9.68516L4.64979 7.70349C4.48024 7.53404 4.25033 7.43884 4.01062 7.43884C3.77091 7.43884 3.541 7.53404 3.37145 7.70349L1.65562 9.42016Z" fill="#78EB7B"/>
<path d="M6.6306 12.3059L17.2998 1.63755L16.6256 0.963379C16.456 0.793922 16.2261 0.69873 15.9864 0.69873C15.7467 0.69873 15.5168 0.793922 15.3473 0.963379L6.6306 9.68505L4.64977 7.70338C4.56587 7.61937 4.46623 7.55273 4.35656 7.50726C4.24689 7.46179 4.12933 7.43839 4.0106 7.43839C3.89187 7.43839 3.77431 7.46179 3.66464 7.50726C3.55496 7.55273 3.45533 7.61937 3.37143 7.70338L2.69727 8.37755L6.6306 12.3059Z" fill="#C9F7CA"/>
<path d="M1.65562 9.42016C1.57161 9.50406 1.50497 9.60369 1.4595 9.71337C1.41403 9.82304 1.39062 9.9406 1.39062 10.0593C1.39062 10.1781 1.41403 10.2956 1.4595 10.4053C1.50497 10.515 1.57161 10.6146 1.65562 10.6985L5.99145 15.0352C6.34479 15.3877 6.91645 15.3877 7.26979 15.0352L18.344 3.96016C18.5134 3.79075 18.6085 3.56099 18.6085 3.32141C18.6085 3.08183 18.5134 2.85207 18.344 2.68266L16.6273 0.965993C16.4579 0.796587 16.2281 0.701416 15.9885 0.701416C15.749 0.701416 15.5192 0.796587 15.3498 0.965993L6.63062 9.68516L4.64979 7.70349C4.48024 7.53404 4.25033 7.43884 4.01062 7.43884C3.77091 7.43884 3.541 7.53404 3.37145 7.70349L1.65562 9.42016Z" stroke="#191919" stroke-linecap="round" stroke-linejoin="round"/>
</svg>
